<svg width="239" height="182" viewBox="0 0 239 182" fill="none" xmlns="http://www.w3.org/2000/svg">
<g clip-path="url(#clip0_178_125724)">
<path d="M115.492 130.436C151.335 130.436 180.391 101.237 180.391 65.2181C180.391 29.1991 151.335 0 115.492 0C79.6499 0 50.5938 29.1991 50.5938 65.2181C50.5938 101.237 79.6499 130.436 115.492 130.436Z" fill="white"/>
<path d="M180.391 65.2181C180.391 101.219 151.359 130.436 115.492 130.436C79.6251 130.436 50.5938 101.262 50.5938 65.2181C50.5938 55.2954 52.788 45.8816 56.7545 37.4856C54.1383 44.1855 52.9568 50.8006 52.9568 56.9916C52.9568 86.5051 76.6714 90.788 86.7564 90.7032C102.116 90.576 120.05 83.028 135.156 68.9921C135.156 68.9921 133.215 79.9748 132.624 83.4096C132.033 86.7171 134.185 89.6007 137.477 89.6007H138.827C142.203 89.6007 144.65 86.8444 145.241 83.4096L150.684 52.624C151.317 49.1892 149.081 46.4329 145.705 46.4329H115.028C111.61 46.4329 108.488 48.2563 107.897 51.6911C107.855 51.9031 107.686 52.8784 107.644 53.0904C107.137 56.3555 109.416 58.815 112.665 58.815H128.658C128.404 59.0694 128.151 59.3239 127.898 59.5783C116.885 70.0946 103.255 75.8192 91.9888 75.8192C80.7222 75.8192 68.1476 68.6952 68.1476 52.624C68.1476 19.3364 99.2466 0 115.492 0C151.275 0 180.391 29.1743 180.391 65.2181Z" fill="#DA291C"/>
<path d="M235.922 170.551C236.09 170.848 236.175 170.975 236.428 170.975C236.428 170.975 236.47 171.314 236.09 171.314C235.837 171.314 235.711 171.187 235.457 170.763L234.993 169.915H234.571L234.36 171.06C234.318 171.229 234.234 171.314 234.065 171.314H233.981C233.812 171.314 233.727 171.229 233.77 171.017L234.318 168.049C234.36 167.837 234.487 167.752 234.656 167.752H235.5C236.301 167.752 236.723 168.091 236.723 168.685C236.723 169.406 236.259 169.872 235.5 169.872L235.922 170.551ZM235.415 169.448C235.922 169.448 236.217 169.151 236.217 168.727C236.217 168.388 235.964 168.219 235.5 168.219H234.867L234.613 169.448H235.415Z" fill="black"/>
<path d="M235.246 166.777C236.85 166.777 238.158 168.091 238.158 169.703C238.158 171.314 236.85 172.629 235.246 172.629C233.643 172.629 232.335 171.314 232.335 169.703C232.377 168.091 233.685 166.777 235.246 166.777ZM235.246 166.31C233.39 166.31 231.871 167.837 231.871 169.703C231.871 171.569 233.39 173.095 235.246 173.095C237.103 173.095 238.622 171.569 238.622 169.703C238.622 167.837 237.145 166.31 235.246 166.31Z" fill="black"/>
<path d="M30.3816 142.988H28.6515C26.9636 142.988 26.2463 143.497 25.107 145.32L15.9081 160.289L12.1104 145.49C11.6462 143.709 11.1399 142.988 9.24104 142.988H7.80635C5.9497 142.988 4.72599 144.09 4.38842 146.083L0.0843583 170.212C-0.211018 172.035 0.590718 172.968 2.152 172.968H2.78495C4.43062 172.968 5.14796 172.162 5.44334 170.339L8.86127 150.833L12.1948 163.893C12.448 165.208 12.7434 166.098 15.233 166.098C17.3428 166.098 17.8492 165.377 18.5665 164.148L26.7105 150.706L23.2925 170.212C22.9972 172.035 23.7989 172.968 25.318 172.968H25.9931C27.6388 172.968 28.3561 172.12 28.6515 170.339L32.9134 146.168C33.2509 144.26 32.3226 142.988 30.3816 142.988Z" fill="black"/>
<path d="M55.1088 160.247C54.8978 154.395 50.9313 150.069 44.3065 150.069C36.711 150.069 32.0694 156.303 32.2804 163.13C32.5336 169.363 36.7954 173.349 43.0827 173.349C50.8469 173.349 55.3198 167.116 55.1088 160.247ZM43.1249 169.109C39.5382 169.109 37.3018 166.48 37.1752 162.96C37.0064 158.381 40.0024 154.31 44.2643 154.31C47.5556 154.31 50.1296 156.939 50.2562 160.501C50.3828 165.335 47.3868 169.109 43.1249 169.109Z" fill="black"/>
<path d="M71.1436 150.112C67.9789 150.112 65.447 151.681 63.8014 154.352C63.9702 151.342 62.3245 150.493 60.6366 150.493C59.8349 150.493 59.2441 150.663 59.2019 150.79L55.784 170.424C55.4464 172.459 56.5857 173.053 58.0204 173.053H58.6534C60.2569 173.053 60.8898 172.417 61.2696 170.424L63.3372 158.635C64.8141 156.048 66.4598 154.819 68.9916 154.819C71.5656 154.819 73.0425 156.345 73.1268 158.89C73.169 159.526 73.0003 160.374 72.8737 161.349L71.2702 170.424C70.9326 172.459 72.0719 173.053 73.5066 173.053H74.0974C75.7008 173.053 76.3338 172.417 76.7136 170.424L78.4858 160.416C78.6968 159.314 78.8234 158.296 78.7812 157.405C78.528 153.08 75.743 150.112 71.1436 150.112Z" fill="black"/>
<path d="M166.381 150.112C163.765 150.112 161.866 151.596 160.516 154.352C160.685 151.342 159.081 150.493 157.394 150.493C156.55 150.493 156.001 150.663 155.959 150.79L152.499 170.424C152.161 172.459 153.512 173.053 154.946 173.053H155.537C156.929 173.053 157.605 172.417 157.942 170.424L159.081 163.851C159.968 158.762 161.824 155.158 164.905 155.158C166.381 155.158 167.31 155.794 167.985 156.473C168.069 156.557 170.348 155.667 170.264 152.953C170.179 151.214 168.491 150.112 166.381 150.112Z" fill="black"/>
<path d="M191.953 150.451C189.801 150.451 188.619 151.469 187.944 154.225C186.551 151.638 183.766 150.112 180.517 150.112C173.597 150.112 168.787 156.303 168.787 163.3C168.787 169.109 172.331 173.349 177.901 173.349C181.319 173.349 183.935 171.908 185.623 169.067C185.412 172.035 185.961 172.968 188.071 172.968C189.969 172.968 190.602 172.289 190.771 170.169C191.024 166.31 192.332 159.95 193.852 151.087C193.978 150.918 193.092 150.451 191.953 150.451ZM179.125 169.109C175.749 169.109 173.808 166.946 173.808 163.172C173.808 158.72 176.424 154.267 181.235 154.267C185.117 154.267 186.762 157.151 186.762 160.331C186.805 164.317 184.104 169.109 179.125 169.109Z" fill="black"/>
<path d="M223.769 150.112C219.971 150.112 217.482 152.062 215.709 154.904C214.823 151.893 212.249 150.112 209 150.112C206.131 150.112 203.599 151.511 201.911 154.055C201.995 151.299 200.392 150.451 198.746 150.451C197.945 150.451 197.354 150.621 197.312 150.748L193.894 170.381C193.556 172.417 194.695 173.01 196.13 173.01H196.763C198.156 173.01 199.042 172.417 199.379 170.381L201.531 158.211C203.093 155.794 204.569 154.776 206.89 154.776C209.127 154.776 210.561 156.473 210.561 159.017C210.561 159.441 210.519 159.907 210.435 160.374L208.705 170.381C208.367 172.417 209.549 173.01 210.941 173.01H211.532C212.924 173.01 213.811 172.417 214.19 170.381L216.342 158.211C217.904 155.794 219.423 154.776 221.701 154.776C223.896 154.776 225.499 156.133 225.499 158.847C225.499 159.483 225.372 160.331 225.246 161.307L223.642 170.381C223.305 172.417 224.444 173.01 225.879 173.01H226.47C228.073 173.01 228.706 172.374 229.044 170.381L230.816 160.374C231.027 159.271 231.111 158.253 231.111 157.363C230.985 152.911 228.031 150.112 223.769 150.112Z" fill="black"/>
<path d="M102.622 159.95C102.622 156.897 102.032 154.861 100.639 153.123C99.1622 151.214 96.4194 150.069 93.2124 150.069C83.5072 150.069 80.0471 157.236 80.0471 163.512C80.0471 169.448 84.3089 173.392 90.8916 173.392C97.4743 173.392 101.145 170.424 101.145 168.091C101.145 166.522 100.048 165.971 98.7824 165.844C97.0523 168.091 94.6471 169.151 91.398 169.151C88.5286 169.151 85.1107 168.049 84.8575 162.918H99.7951C101.399 162.918 102.622 161.985 102.622 159.95ZM97.8119 159.229H85.406C86.5875 156.048 89.3303 154.098 92.8749 154.098C94.6471 154.098 95.9974 154.607 96.8835 155.582C97.6431 156.473 97.9385 157.702 97.8119 159.229Z" fill="black"/>
<path d="M148.954 156.939H140.093C139.038 156.939 138.532 157.151 138.194 157.533C137.646 158.126 137.392 159.398 137.392 159.992C137.435 160.925 138.236 161.434 139.629 161.434H145.916C145.03 165.844 142.245 168.939 137.435 168.939C132.413 168.939 128.995 165.717 128.784 160.247C128.573 153.335 133.088 147.652 139.544 147.652C143.342 147.652 146.254 149.688 147.477 152.359C147.646 152.571 151.148 152.571 151.022 149.561C150.98 148.5 150.389 147.228 149.207 146.168C147.351 144.302 143.848 142.733 139.249 142.733C132.751 142.733 127.645 146.338 124.944 151.511C124.944 151.469 124.902 151.469 124.902 151.469C124.354 150.79 123.51 150.451 122.666 150.451C121.231 150.451 120.303 150.918 118.868 153.377L111.948 165.547L109.332 153.419C108.825 151.172 108.023 150.451 106.589 150.451C104.901 150.451 103.551 151.681 103.593 151.978L108.53 171.611L103.382 179.965C102.833 180.897 102.791 182.085 104.774 182.085H105.829C107.855 182.085 108.488 180.855 109.5 179.159L123.383 155.54C122.961 157.193 122.75 158.974 122.834 160.755C123.088 168.685 128.404 173.434 136.211 173.434C139.924 173.434 142.836 172.035 144.481 169.872C144.355 172.162 145.578 173.095 147.224 173.095C148.152 173.095 148.785 172.798 148.785 172.629L151.022 159.907C151.528 157.914 150.811 156.939 148.954 156.939Z" fill="black"/>
</g>
<defs>
<clipPath id="clip0_178_125724">
<rect width="238.622" height="182" fill="white"/>
</clipPath>
</defs>
</svg>
